<svg xmlns="http://www.w3.org/2000/svg" viewBox="0 0 32 40" x="0px" y="0px"><path d="M27.06,6.08H4.94c-1.654,0-3,1.346-3,3v13.84c0,1.654,1.346,3,3,3H27.06c1.654,0,3-1.346,3-3V9.08c0-1.654-1.346-3-3-3Zm1,16.271l-5.854-6.374,5.854-3.307v9.681ZM4.94,8.08H27.06c.552,0,1,.449,1,1v1.293l-12.06,6.813L3.94,10.373v-1.293c0-.551,.448-1,1-1Zm-1,13.987V12.67l5.837,3.298-5.837,6.099Zm.996,1.852l6.638-6.936,3.933,2.222c.153,.086,.322,.129,.492,.129s.339-.043,.492-.129l3.926-2.218,6.367,6.933H4.94s-.002,0-.004,0Z"/><text x="0" y="47" fill="#000000" font-size="5px" font-weight="bold" font-family="'Helvetica Neue', Helvetica, Arial-Unicode, Arial, Sans-serif">Created by Kiki Rizky</text><text x="0" y="52" fill="#000000" font-size="5px" font-weight="bold" font-family="'Helvetica Neue', Helvetica, Arial-Unicode, Arial, Sans-serif">from the Noun Project</text></svg>